<svg xmlns="http://www.w3.org/2000/svg" viewBox="0 0 48 48" fill="none">
  <line x1="24" y1="4" x2="24" y2="44" stroke="#67E8F9" stroke-width="2.5" stroke-linecap="round"/>
  <line x1="6" y1="14" x2="42" y2="34" stroke="#67E8F9" stroke-width="2.5" stroke-linecap="round"/>
  <line x1="6" y1="34" x2="42" y2="14" stroke="#67E8F9" stroke-width="2.5" stroke-linecap="round"/>
  <line x1="24" y1="10" x2="20" y2="6" stroke="#67E8F9" stroke-width="1.5" stroke-linecap="round"/>
  <line x1="24" y1="10" x2="28" y2="6" stroke="#67E8F9" stroke-width="1.5" stroke-linecap="round"/>
  <line x1="24" y1="38" x2="20" y2="42" stroke="#67E8F9" stroke-width="1.5" stroke-linecap="round"/>
  <line x1="24" y1="38" x2="28" y2="42" stroke="#67E8F9" stroke-width="1.5" stroke-linecap="round"/>
  <line x1="12" y1="18" x2="8" y2="18" stroke="#67E8F9" stroke-width="1.5" stroke-linecap="round"/>
  <line x1="12" y1="18" x2="12" y2="14" stroke="#67E8F9" stroke-width="1.5" stroke-linecap="round"/>
  <line x1="36" y1="30" x2="40" y2="30" stroke="#67E8F9" stroke-width="1.5" stroke-linecap="round"/>
  <line x1="36" y1="30" x2="36" y2="34" stroke="#67E8F9" stroke-width="1.5" stroke-linecap="round"/>
  <line x1="12" y1="30" x2="8" y2="30" stroke="#67E8F9" stroke-width="1.5" stroke-linecap="round"/>
  <line x1="12" y1="30" x2="12" y2="34" stroke="#67E8F9" stroke-width="1.5" stroke-linecap="round"/>
  <line x1="36" y1="18" x2="40" y2="18" stroke="#67E8F9" stroke-width="1.5" stroke-linecap="round"/>
  <line x1="36" y1="18" x2="36" y2="14" stroke="#67E8F9" stroke-width="1.5" stroke-linecap="round"/>
</svg>
