<svg xmlns="http://www.w3.org/2000/svg" viewBox="0 0 48 48" fill="none">
  <path d="M12 14c0-4 5-8 12-8s12 4 12 8v14c0 6-5 10-12 10S12 34 12 28V14z" stroke="#EF4444" stroke-width="2.5" stroke-linecap="round" stroke-linejoin="round" fill="none"/>
  <path d="M14 8l4-4 4 3 6-5 6 5 4-3 4 4" stroke="#FFD700" stroke-width="2" stroke-linecap="round" stroke-linejoin="round" fill="none"/>
  <circle cx="20" cy="20" r="3" fill="#EF4444"/>
  <circle cx="28" cy="20" r="3" fill="#EF4444"/>
  <path d="M18 30h12" stroke="#EF4444" stroke-width="2.5" stroke-linecap="round"/>
  <line x1="20" y1="30" x2="19" y2="34" stroke="#EF4444" stroke-width="1.5" stroke-linecap="round"/>
  <line x1="24" y1="30" x2="24" y2="35" stroke="#EF4444" stroke-width="1.5" stroke-linecap="round"/>
  <line x1="28" y1="30" x2="29" y2="34" stroke="#EF4444" stroke-width="1.5" stroke-linecap="round"/>
  <path d="M14 38v4M24 36v6M34 38v4" stroke="#EF4444" stroke-width="2" stroke-linecap="round" opacity="0.5"/>
</svg>
