<svg xmlns="http://www.w3.org/2000/svg" viewBox="0 0 48 48" fill="none">
  <path d="M14 30v-8c0-2 1.5-3 3-3s3 1 3 3v-4c0-2 1.5-3 3-3s3 1 3 3v-2c0-2 1.5-3 3-3s3 1 3 3v2c1.5-1 3-0.5 3 1.5v12c0 6-4 10-10 10h-2c-6 0-9-4-9-10z" stroke="currentColor" stroke-width="2.5" stroke-linecap="round" stroke-linejoin="round"/>
  <line x1="17" y1="24" x2="17" y2="30" stroke="currentColor" stroke-width="2.5" stroke-linecap="round" stroke-linejoin="round" opacity="0.4"/>
  <line x1="23" y1="22" x2="23" y2="30" stroke="currentColor" stroke-width="2.5" stroke-linecap="round" stroke-linejoin="round" opacity="0.4"/>
  <line x1="29" y1="20" x2="29" y2="30" stroke="currentColor" stroke-width="2.5" stroke-linecap="round" stroke-linejoin="round" opacity="0.4"/>
</svg>
